<?xml version="1.0" encoding="utf-8"?>
<!-- Generated by IcoMoon.io -->
<!DOCTYPE svg PUBLIC "-//W3C//DTD SVG 1.1//EN" "http://www.w3.org/Graphics/SVG/1.1/DTD/svg11.dtd">
<svg version="1.1" xmlns="http://www.w3.org/2000/svg" xmlns:xlink="http://www.w3.org/1999/xlink" width="1024" height="1024" viewBox="0 0 1024 1024">
<g id="icomoon-ignore">
</g>
<path d="M528 96.896c-238.592 0-432 193.408-432 432s193.408 432 432 432c238.56 0 432-193.408 432-432s-193.44-432-432-432zM525.824 898.368c-203.232 0-368-164.768-368-368 0-203.264 164.736-368 368-368 203.2 0 368 164.736 368 368 0 203.232-164.832 368-368 368zM698.752 276.48c-7.264 4.352-14.24 8.736-22.944 14.432-107.872 70.016-122.944 113.568-124.48 195.392 0 15.424-0.032 31.584-0.032 47.040 3.744-2.24 7.36-4.48 10.976-6.656 6.592-3.872 12.832-7.904 23.072-14.496 107.84-70.016 122.912-113.568 124.416-195.392 0-16.288 0.064-30.944 0.064-47.040-3.808 2.272-7.456 4.48-11.072 6.72zM683.936 356.448c0 36.544-29.6 69.888-81.44 112.864-6.336 5.28-11.104 7.328-15.52 9.984-2.432 1.504-4.864 3.040-7.392 4.576 0-10.592 0.224-11.744 0-22.336 0-50.56 19.2-89.056 83.936-133.952 7.072-4.928 19.264-11.264 20.48-12-0.032 32.64-0.256 29.696-0.064 40.864zM698.752 474.464c-7.264 4.352-14.24 8.736-22.944 14.432-107.872 70.016-122.944 113.568-124.48 195.392 0 15.424-0.032 31.584-0.032 47.040 3.744-2.24 7.36-4.48 10.976-6.656 6.592-3.872 12.832-7.904 23.072-14.496 107.84-70.016 122.912-113.568 124.416-195.392 0-16.288 0.064-30.944 0.064-47.040-3.808 2.272-7.456 4.512-11.072 6.72zM364.544 536.352c7.264 4.352 14.272 8.736 22.944 14.432 107.904 70.016 122.976 113.568 124.512 195.392 0 15.424 0.032 31.584 0.032 47.040-3.776-2.24-7.36-4.48-10.976-6.656-6.592-3.872-12.864-7.904-23.040-14.496-107.872-70.016-122.912-113.568-124.448-195.392 0-16.288-0.032-30.944-0.032-47.040 3.744 2.272 7.392 4.48 11.008 6.72zM364.544 338.336c7.264 4.352 14.272 8.736 22.944 14.432 107.904 70.016 122.976 113.568 124.512 195.392 0 15.424 0.032 31.584 0.032 47.040-3.776-2.24-7.36-4.48-10.976-6.656-6.592-3.872-12.864-7.904-23.040-14.496-107.872-70.016-122.912-113.568-124.448-195.392 0-16.288-0.032-30.944-0.032-47.040 3.744 2.304 7.392 4.512 11.008 6.72z"></path>
</svg>
